<svg width="28" height="28" viewBox="0 0 28 28" fill="none" xmlns="http://www.w3.org/2000/svg">
<path fill-rule="evenodd" clip-rule="evenodd" d="M12.6727 1.42208C12.4981 1.59625 12.3596 1.80316 12.2651 2.03096C12.1705 2.25875 12.1219 2.50295 12.1219 2.74958C12.1219 2.99621 12.1705 3.24041 12.2651 3.46821C12.3596 3.696 12.4981 3.90291 12.6727 4.07708L22.599 13.9996L12.6727 23.9221C12.4984 24.0964 12.3601 24.3034 12.2658 24.5311C12.1714 24.7589 12.1229 25.003 12.1229 25.2496C12.1229 25.4961 12.1714 25.7402 12.2658 25.968C12.3601 26.1958 12.4984 26.4028 12.6727 26.5771C12.847 26.7514 13.054 26.8897 13.2818 26.984C13.5096 27.0784 13.7537 27.127 14.0002 27.127C14.2468 27.127 14.4909 27.0784 14.7187 26.984C14.9464 26.8897 15.1534 26.7514 15.3277 26.5771L26.5777 15.3271C26.7523 15.1529 26.8909 14.946 26.9854 14.7182C27.0799 14.4904 27.1286 14.2462 27.1286 13.9996C27.1286 13.753 27.0799 13.5088 26.9854 13.281C26.8909 13.0532 26.7523 12.8463 26.5777 12.6721L15.3277 1.42208C15.1536 1.24747 14.9466 1.10893 14.7188 1.01441C14.4911 0.919886 14.2468 0.87123 14.0002 0.87123C13.7536 0.87123 13.5094 0.919886 13.2816 1.01441C13.0538 1.10893 12.8469 1.24747 12.6727 1.42208Z" fill="#377DFF"/>
<path fill-rule="evenodd" clip-rule="evenodd" d="M0.874998 14C0.874998 14.4973 1.07254 14.9742 1.42417 15.3258C1.7758 15.6775 2.25272 15.875 2.75 15.875L21.5 15.875C21.9973 15.875 22.4742 15.6775 22.8258 15.3258C23.1775 14.9742 23.375 14.4973 23.375 14C23.375 13.5027 23.1775 13.0258 22.8258 12.6742C22.4742 12.3225 21.9973 12.125 21.5 12.125L2.75 12.125C2.25272 12.125 1.7758 12.3225 1.42417 12.6742C1.07254 13.0258 0.874998 13.5027 0.874998 14Z" fill="#377DFF"/>
</svg>
