<svg width="28" height="28" viewBox="0 0 28 28" fill="none" xmlns="http://www.w3.org/2000/svg">
<path fill-rule="evenodd" clip-rule="evenodd" d="M15.3273 26.5779C15.5019 26.4037 15.6404 26.1968 15.735 25.969C15.8295 25.7412 15.8781 25.497 15.8781 25.2504C15.8781 25.0038 15.8295 24.7596 15.735 24.5318C15.6404 24.304 15.5019 24.0971 15.3273 23.9229L5.40103 14.0004L15.3273 4.07792C15.5016 3.90359 15.6399 3.69663 15.7342 3.46885C15.8286 3.24108 15.8771 2.99696 15.8771 2.75042C15.8771 2.50388 15.8286 2.25975 15.7342 2.03198C15.6399 1.8042 15.5016 1.59725 15.3273 1.42292C15.153 1.24859 14.946 1.1103 14.7182 1.01595C14.4904 0.921607 14.2463 0.873047 13.9998 0.873047C13.7532 0.873047 13.5091 0.921607 13.2813 1.01595C13.0536 1.1103 12.8466 1.24859 12.6723 1.42292L1.42228 12.6729C1.24767 12.8471 1.10913 13.054 1.01461 13.2818C0.920083 13.5096 0.871429 13.7538 0.871429 14.0004C0.871429 14.247 0.920083 14.4912 1.01461 14.719C1.10913 14.9468 1.24767 15.1537 1.42228 15.3279L12.6723 26.5779C12.8465 26.7525 13.0534 26.8911 13.2812 26.9856C13.5089 27.0801 13.7532 27.1288 13.9998 27.1288C14.2464 27.1288 14.4906 27.0801 14.7184 26.9856C14.9462 26.8911 15.1531 26.7525 15.3273 26.5779Z" fill="#377DFF"/>
<path fill-rule="evenodd" clip-rule="evenodd" d="M27.125 14C27.125 13.5027 26.9275 13.0258 26.5758 12.6742C26.2242 12.3225 25.7473 12.125 25.25 12.125H6.5C6.00272 12.125 5.52581 12.3225 5.17418 12.6742C4.82254 13.0258 4.625 13.5027 4.625 14C4.625 14.4973 4.82254 14.9742 5.17418 15.3258C5.52581 15.6775 6.00272 15.875 6.5 15.875H25.25C25.7473 15.875 26.2242 15.6775 26.5758 15.3258C26.9275 14.9742 27.125 14.4973 27.125 14Z" fill="#377DFF"/>
</svg>
