<svg width="20" height="20" viewBox="0 0 20 20" fill="none" xmlns="http://www.w3.org/2000/svg">
<path d="M5.83331 8.75003C5.83268 8.64036 5.8537 8.53164 5.89517 8.43011C5.93664 8.32858 5.99774 8.23623 6.07498 8.15836C6.15245 8.08026 6.24461 8.01826 6.34616 7.97595C6.44771 7.93365 6.55663 7.91187 6.66664 7.91187C6.77665 7.91187 6.88558 7.93365 6.98712 7.97595C7.08867 8.01826 7.18084 8.08026 7.25831 8.15836L9.99998 10.9167L12.7583 8.2667C12.9144 8.11149 13.1257 8.02437 13.3458 8.02437C13.566 8.02437 13.7772 8.11149 13.9333 8.2667C14.0114 8.34417 14.0734 8.43633 14.1157 8.53788C14.158 8.63943 14.1798 8.74835 14.1798 8.85836C14.1798 8.96837 14.158 9.0773 14.1157 9.17884C14.0734 9.28039 14.0114 9.37256 13.9333 9.45003L10.6 12.6667C10.4442 12.8194 10.2348 12.9049 10.0166 12.9049C9.79852 12.9049 9.58909 12.8194 9.43331 12.6667L6.09998 9.33336C6.0192 9.25857 5.95405 9.1685 5.90827 9.06838C5.8625 8.96826 5.83703 8.86006 5.83331 8.75003V8.75003Z" fill="#377DFF"/>
</svg>
