<svg width="15" height="20" viewBox="0 0 15 20" xmlns="http://www.w3.org/2000/svg">
<path d="M14.6353 5.11776C13.9417 2.87635 12.1183 1.05244 9.87692 0.358767C7.50461 -0.37609 4.98057 0.0323308 3.05398 1.4519C1.14159 2.86166 0 5.11999 0 7.49276C0 9.12964 0.517822 10.6848 1.49713 11.9897L7.50077 19.6885L13.5044 11.9892C14.97 10.0351 15.3825 7.53052 14.6353 5.11776ZM7.50077 11.5316C5.27397 11.5316 3.4619 9.71952 3.4619 7.49272C3.4619 5.26593 5.27397 3.45386 7.50077 3.45386C9.72756 3.45386 11.5396 5.26593 11.5396 7.49272C11.5396 9.71952 9.72756 11.5316 7.50077 11.5316Z"/>
<path d="M7.50063 4.61719C5.90997 4.61719 4.61572 5.90374 4.61572 7.4944C4.61572 9.08505 5.90997 10.3793 7.50063 10.3793C9.09129 10.3793 10.3855 9.08505 10.3855 7.4944C10.3856 5.90374 9.09129 4.61719 7.50063 4.61719Z"/>
</svg>
